<svg width="16" height="16" viewBox="0 0 16 16" fill="none" xmlns="http://www.w3.org/2000/svg">
<g clip-path="url(#clip0_877_44129)">
<path d="M4.6665 12.0007C3.93317 12.0007 3.33984 12.6007 3.33984 13.334C3.33984 14.0673 3.93317 14.6673 4.6665 14.6673C5.39984 14.6673 5.99984 14.0673 5.99984 13.334C5.99984 12.6007 5.39984 12.0007 4.6665 12.0007ZM0.666504 2.00065C0.666504 2.36732 0.966504 2.66732 1.33317 2.66732H1.99984L4.39984 7.72732L3.49984 9.35398C3.01317 10.2473 3.65317 11.334 4.6665 11.334H11.9998C12.3665 11.334 12.6665 11.034 12.6665 10.6673C12.6665 10.3007 12.3665 10.0007 11.9998 10.0007H4.6665L5.39984 8.66732H10.3665C10.8665 8.66732 11.3065 8.39398 11.5332 7.98065L13.9198 3.65398C14.1665 3.21398 13.8465 2.66732 13.3398 2.66732H3.47317L3.0265 1.71398C2.91984 1.48065 2.67984 1.33398 2.4265 1.33398H1.33317C0.966504 1.33398 0.666504 1.63398 0.666504 2.00065ZM11.3332 12.0007C10.5998 12.0007 10.0065 12.6007 10.0065 13.334C10.0065 14.0673 10.5998 14.6673 11.3332 14.6673C12.0665 14.6673 12.6665 14.0673 12.6665 13.334C12.6665 12.6007 12.0665 12.0007 11.3332 12.0007Z" fill="black"/>
</g>
<defs>
<clipPath id="clip0_877_44129">
<rect width="16" height="16" fill="white"/>
</clipPath>
</defs>
</svg>
